<?xml version="1.0" encoding="UTF-8"?>
<svg id="Layer_1" data-name="Layer 1" xmlns="http://www.w3.org/2000/svg" viewBox="0 0 593.47 329.28">
  <defs>
    <style>
      .cls-1, .cls-2, .cls-3 {
        fill: #fff;
      }

      .cls-2 {
        stroke-width: 1.58px;
      }

      .cls-2, .cls-3 {
        stroke: #fff;
        stroke-miterlimit: 10;
      }

      .cls-3 {
        stroke-width: .75px;
      }
    </style>
  </defs>
  <g>
    <polygon class="cls-1" points="232.42 1.5 214.14 18.92 228.7 44.11 214.57 44.11 205 27 199.72 31.9 198.65 44.11 186.68 44.11 190.41 1.5 202.38 1.5 200.9 18.38 217.94 1.5 232.42 1.5"/>
    <polygon class="cls-1" points="267.52 12.15 247.05 12.15 246.27 21.13 265.42 21.13 264.54 31.19 245.39 31.19 244.26 44.11 232.29 44.11 236.01 1.5 268.45 1.5 267.52 12.15"/>
    <path class="cls-1" d="M274.61,40.58c-3.33-2.99-4.75-7.26-4.27-12.81l2.3-26.27h11.97l-2.31,26.39c-.2,2.23.28,3.95,1.44,5.15,1.15,1.2,2.87,1.8,5.14,1.8s4.09-.6,5.45-1.8c1.36-1.2,2.14-2.91,2.34-5.15l2.31-26.39h11.97l-2.3,26.27c-.49,5.63-2.6,9.92-6.33,12.87-3.77,2.95-8.55,4.43-14.33,4.43s-10.12-1.5-13.37-4.49"/>
    <path class="cls-1" d="M337.52,1.5c5.11,0,8.99,1.33,11.65,3.98,2.66,2.65,3.79,6.27,3.39,10.86-.4,4.59-2.16,8.21-5.29,10.86-3.12,2.65-7.24,3.98-12.35,3.98h-8.02l-1.13,12.93h-11.97l3.73-42.61h19.99ZM334.9,21.13c1.68,0,3.02-.41,4.03-1.23,1.01-.82,1.58-2,1.72-3.56.14-1.56-.23-2.74-1.09-3.56-.87-.82-2.14-1.23-3.81-1.23h-7.12l-.84,9.58h7.12Z"/>
    <path class="cls-1" d="M390,1.5h18.31l-3.73,42.61h-11.37l1.06-12.09c.68-7.82,1.39-14.46,2.1-19.93-1.19,3.51-2.3,6.66-3.34,9.46l-8.14,22.56h-9.7l-4.19-22.56c-.55-2.79-1.12-5.94-1.69-9.46-.24,5.47-.7,12.11-1.38,19.93l-1.06,12.09h-11.37l3.73-42.61h18.31l2.66,16.16c.67,4.15,1.13,7.2,1.35,9.16.57-1.96,1.56-5.01,2.96-9.16l5.48-16.16Z"/>
  </g>
  <g>
    <path class="cls-3" d="M93.6,137.43c-4.29-2.48-7.64-6.08-10.05-10.77-2.42-4.7-3.62-10.23-3.62-16.59,0-7.33,1.43-13.68,4.3-19.05,2.87-5.36,6.69-9.44,11.46-12.23,4.77-2.79,9.96-4.18,15.58-4.18,6.64,0,12.26,1.77,16.85,5.32,4.59,3.55,7.55,8.53,8.88,14.96h-6.7c-1.33-4.85-3.61-8.44-6.84-10.77-3.23-2.33-7.23-3.5-12-3.5s-8.7,1.15-12.5,3.46c-3.8,2.3-6.84,5.68-9.1,10.14s-3.4,9.74-3.4,15.87c0,8.18,1.98,14.41,5.93,18.69s9.22,6.41,15.81,6.41c4.95,0,9.15-1.23,12.59-3.68,3.44-2.46,5.92-5.99,7.43-10.59h6.7c-1.51,6.49-4.67,11.49-9.47,15-4.8,3.52-10.52,5.27-17.17,5.27-5.5,0-10.39-1.24-14.67-3.73Z"/>
    <path class="cls-3" d="M147.81,135.56c-3.47-3.85-5.21-9.14-5.21-15.87,0-6.12,1.01-11.24,3.03-15.37,2.02-4.12,4.71-7.17,8.06-9.14,3.35-1.97,7.11-2.96,11.28-2.96,3.14,0,6.05.71,8.74,2.14,2.69,1.43,4.79,3.35,6.29,5.77l.54-6.82h5.89l-4.08,46.92h-5.89l.63-6.82c-1.39,2.3-3.47,4.2-6.25,5.68-2.78,1.48-5.8,2.23-9.06,2.23-5.86,0-10.52-1.92-13.99-5.77ZM170.73,133.24c2.45-1.7,4.38-4.17,5.8-7.41,1.42-3.24,2.13-7.11,2.13-11.59,0-5.09-1.21-9.11-3.62-12.05-2.42-2.94-5.77-4.41-10.05-4.41-3.02,0-5.75.85-8.2,2.55-2.45,1.7-4.39,4.17-5.84,7.41-1.45,3.24-2.17,7.11-2.17,11.59,0,5.09,1.22,9.11,3.67,12.05,2.45,2.94,5.81,4.41,10.1,4.41,3.02,0,5.75-.85,8.2-2.55Z"/>
    <path class="cls-3" d="M197.59,93.32h5.89l-.63,6.91c1.39-2.42,3.17-4.33,5.34-5.73,2.17-1.39,5.13-2.09,8.88-2.09,1.51,0,2.87.12,4.08.36l-.54,5.64c-.97-.18-2.36-.27-4.17-.27-2.42,0-4.7.55-6.84,1.64-2.14,1.09-3.91,2.61-5.3,4.55-1.39,1.94-2.17,4.12-2.36,6.55l-2.54,29.37h-5.89l4.08-46.92Z"/>
    <path class="cls-3" d="M228.16,135.42c-3.66-3.94-5.48-9.21-5.48-15.82,0-5.58,1.06-10.44,3.17-14.59,2.11-4.15,4.98-7.32,8.61-9.5,3.62-2.18,7.67-3.27,12.14-3.27,5.67,0,10.25,1.73,13.72,5.18,3.47,3.46,5.21,8.34,5.21,14.64,0,1.27-.03,2.24-.09,2.91l-.36,4.09h-36.23c0,5.15,1.27,9.18,3.8,12.09,2.54,2.91,6.01,4.36,10.42,4.36,4.04,0,7.32-.85,9.83-2.55,2.5-1.7,4.12-3.85,4.85-6.46h6.34c-.6,2.73-1.87,5.21-3.8,7.46-1.93,2.24-4.38,4.03-7.34,5.36-2.96,1.33-6.22,2-9.78,2-6.34,0-11.34-1.97-14.99-5.91ZM259.37,113.06c.24-4.97-.8-8.71-3.12-11.23-2.33-2.51-5.63-3.77-9.92-3.77s-7.96,1.32-11.01,3.96c-3.05,2.64-5.03,6.32-5.93,11.05h29.98Z"/>
    <path class="cls-3" d="M279.07,135.42c-3.65-3.94-5.48-9.21-5.48-15.82,0-5.58,1.06-10.44,3.17-14.59,2.11-4.15,4.98-7.32,8.61-9.5s7.67-3.27,12.14-3.27c5.68,0,10.25,1.73,13.72,5.18,3.47,3.46,5.21,8.34,5.21,14.64,0,1.27-.03,2.24-.09,2.91l-.36,4.09h-36.23c0,5.15,1.27,9.18,3.8,12.09,2.54,2.91,6.01,4.36,10.42,4.36,4.04,0,7.32-.85,9.83-2.55,2.5-1.7,4.12-3.85,4.85-6.46h6.34c-.6,2.73-1.87,5.21-3.8,7.46-1.93,2.24-4.38,4.03-7.34,5.36-2.96,1.33-6.22,2-9.78,2-6.34,0-11.34-1.97-14.99-5.91ZM310.27,113.06c.24-4.97-.8-8.71-3.12-11.23-2.33-2.51-5.63-3.77-9.92-3.77s-7.96,1.32-11.01,3.96c-3.05,2.64-5.03,6.32-5.93,11.05h29.98Z"/>
    <path class="cls-3" d="M328.48,93.32h5.89l-.63,6.91c1.39-2.42,3.17-4.33,5.34-5.73,2.17-1.39,5.13-2.09,8.88-2.09,1.51,0,2.87.12,4.08.36l-.54,5.64c-.97-.18-2.36-.27-4.17-.27-2.42,0-4.7.55-6.84,1.64-2.14,1.09-3.91,2.61-5.3,4.55-1.39,1.94-2.17,4.12-2.36,6.55l-2.54,29.37h-5.89l4.08-46.92Z"/>
    <path class="cls-3" d="M384.1,75.5h40.67l-.54,5.91h-34.42l-1.99,23h29.17l-.54,6h-29.17l-2.63,29.82h-6.16l5.62-64.74Z"/>
    <path class="cls-3" d="M429.07,135.56c-3.47-3.85-5.21-9.14-5.21-15.87,0-6.12,1.01-11.24,3.04-15.37,2.02-4.12,4.71-7.17,8.06-9.14,3.35-1.97,7.11-2.96,11.28-2.96,3.14,0,6.05.71,8.74,2.14,2.69,1.43,4.79,3.35,6.3,5.77l.54-6.82h5.89l-4.08,46.92h-5.89l.63-6.82c-1.39,2.3-3.47,4.2-6.25,5.68-2.78,1.48-5.8,2.23-9.06,2.23-5.86,0-10.52-1.92-14-5.77ZM451.99,133.24c2.45-1.7,4.38-4.17,5.8-7.41,1.42-3.24,2.13-7.11,2.13-11.59,0-5.09-1.21-9.11-3.62-12.05-2.42-2.94-5.77-4.41-10.05-4.41-3.02,0-5.75.85-8.2,2.55-2.45,1.7-4.39,4.17-5.84,7.41-1.45,3.24-2.17,7.11-2.17,11.59,0,5.09,1.22,9.11,3.67,12.05,2.45,2.94,5.81,4.41,10.1,4.41,3.02,0,5.75-.85,8.2-2.55Z"/>
    <path class="cls-3" d="M478.85,93.32h5.89l-4.08,46.92h-5.89l4.08-46.92ZM479.57,83.23c-.97-.97-1.45-2.15-1.45-3.55s.48-2.56,1.45-3.5c.96-.94,2.11-1.41,3.44-1.41s2.55.47,3.49,1.41c.94.94,1.4,2.11,1.4,3.5s-.48,2.58-1.45,3.55c-.97.97-2.12,1.46-3.44,1.46s-2.48-.48-3.44-1.46Z"/>
    <path class="cls-3" d="M495.88,93.32h5.89l-.63,6.91c1.39-2.42,3.17-4.33,5.34-5.73,2.17-1.39,5.13-2.09,8.88-2.09,1.51,0,2.87.12,4.08.36l-.54,5.64c-.97-.18-2.36-.27-4.17-.27-2.42,0-4.7.55-6.84,1.64-2.14,1.09-3.91,2.61-5.3,4.55-1.39,1.94-2.17,4.12-2.36,6.55l-2.54,29.37h-5.89l4.08-46.92Z"/>
  </g>
  <g>
    <path class="cls-3" d="M234.76,317.11c1.44-2.01,3.11-3.54,5.01-4.58,1.9-1.04,4.35-2.13,7.34-3.25,2.53-.97,4.53-1.84,5.99-2.61,1.46-.77,2.67-1.83,3.63-3.16.96-1.33,1.44-3.04,1.44-5.13,0-2.55-.75-4.48-2.24-5.8-1.5-1.31-3.67-1.97-6.5-1.97-6.18,0-9.75,2.77-10.71,8.29h-4.38c.73-3.94,2.4-6.96,5.01-9.05,2.61-2.09,5.93-3.13,9.96-3.13s7.17,1.04,9.53,3.1c2.36,2.07,3.54,4.96,3.54,8.67,0,2.75-.63,5.01-1.9,6.79-1.27,1.78-2.81,3.17-4.63,4.18-1.82,1.01-4.25,2.11-7.28,3.31-2.73,1.08-4.9,2.05-6.53,2.9-1.63.85-3.03,1.98-4.2,3.39-1.17,1.41-1.83,3.16-1.99,5.25l-.06.64h24.87l-.35,3.77h-28.49l.35-3.71c.31-3.25,1.18-5.88,2.62-7.89Z"/>
    <path class="cls-3" d="M269.64,324.71c-2.51-3.05-3.77-7.37-3.77-12.93s.73-9.95,2.19-13.72c1.46-3.77,3.49-6.6,6.1-8.5,2.61-1.89,5.6-2.84,8.98-2.84,4.57,0,8.11,1.53,10.62,4.58,2.51,3.06,3.77,7.37,3.77,12.93s-.73,9.95-2.19,13.72c-1.46,3.77-3.49,6.6-6.1,8.5-2.61,1.9-5.6,2.84-8.98,2.84-4.57,0-8.11-1.53-10.62-4.58ZM289.84,320.16c2.36-3.54,3.54-8.86,3.54-15.98,0-9.09-3.4-13.63-10.19-13.63-4.07,0-7.28,1.76-9.64,5.28-2.36,3.52-3.54,8.84-3.54,15.95,0,9.13,3.42,13.69,10.25,13.69,4.03,0,7.22-1.77,9.58-5.31Z"/>
    <path class="cls-3" d="M302.39,317.11c1.44-2.01,3.11-3.54,5.01-4.58,1.9-1.04,4.35-2.13,7.34-3.25,2.53-.97,4.53-1.84,5.99-2.61,1.46-.77,2.67-1.83,3.63-3.16.96-1.33,1.44-3.04,1.44-5.13,0-2.55-.75-4.48-2.24-5.8-1.5-1.31-3.67-1.97-6.5-1.97-6.18,0-9.75,2.77-10.71,8.29h-4.38c.73-3.94,2.4-6.96,5.01-9.05,2.61-2.09,5.93-3.13,9.96-3.13s7.17,1.04,9.53,3.1c2.36,2.07,3.54,4.96,3.54,8.67,0,2.75-.63,5.01-1.9,6.79-1.27,1.78-2.81,3.17-4.63,4.18-1.82,1.01-4.25,2.11-7.28,3.31-2.73,1.08-4.9,2.05-6.53,2.9-1.63.85-3.03,1.98-4.2,3.39-1.17,1.41-1.83,3.16-1.99,5.25l-.06.64h24.87l-.35,3.77h-28.49l.35-3.71c.31-3.25,1.18-5.88,2.62-7.89Z"/>
    <path class="cls-3" d="M336.99,325.14c-2.36-2.84-3.54-7.09-3.54-12.73,0-5.18.7-9.71,2.1-13.57,1.4-3.87,3.42-6.85,6.04-8.96,2.63-2.11,5.76-3.16,9.41-3.16,3.42,0,6.21.91,8.38,2.73,2.17,1.82,3.46,4.23,3.88,7.25h-4.55c-.46-2.01-1.29-3.53-2.47-4.55-1.19-1.02-2.9-1.54-5.12-1.54-3.84,0-6.8,1.38-8.89,4.15-2.09,2.77-3.48,7.05-4.17,12.85,1.23-1.89,2.82-3.33,4.78-4.29,1.96-.97,4.16-1.45,6.62-1.45s4.54.55,6.48,1.65,3.47,2.62,4.61,4.55c1.13,1.93,1.7,4.08,1.7,6.44,0,3.06-.67,5.71-2.01,7.98-1.34,2.26-3.16,3.98-5.44,5.16-2.28,1.18-4.85,1.77-7.68,1.77-4.38,0-7.74-1.42-10.1-4.26ZM352.61,324.16c1.69-.91,3.03-2.18,4.03-3.83,1-1.64,1.5-3.51,1.5-5.6,0-2.59-.85-4.71-2.56-6.35-1.71-1.64-3.94-2.46-6.71-2.46-1.96,0-3.78.44-5.47,1.33-1.69.89-3.04,2.16-4.06,3.8-1.02,1.64-1.53,3.53-1.53,5.66,0,2.59.86,4.71,2.59,6.35,1.73,1.64,3.97,2.47,6.74,2.47,1.96,0,3.78-.45,5.47-1.36Z"/>
  </g>
  <g>
    <path class="cls-2" d="M1.4,234.1h73.49l1-10.97h-27.41l1-10.88c.61-6.4,2.79-11.35,6.56-14.85,3.76-3.5,8.74-5.26,14.93-5.26h13.93l-1.37,15.27-2.37,26.69h10.47l-.55,6.58H.86l.55-6.58ZM60.14,202.61c-2.61,2.41-4.1,5.77-4.46,10.1l-.27,3.66h21.04l1.28-13.25.36-4.11h-7.65c-4.25,0-7.68,1.2-10.29,3.61ZM70.02,184.33c-.7-.76-1.05-1.66-1.05-2.7s.42-1.98,1.27-2.83c.85-.85,1.85-1.28,3-1.28.97,0,1.81.37,2.5,1.1.7.73,1.05,1.59,1.05,2.56,0,1.1-.43,2.09-1.27,2.97-.85.88-1.82,1.33-2.91,1.33-1.03,0-1.9-.38-2.6-1.14Z"/>
    <path class="cls-2" d="M88.64,234.1h12.57l2.37-27.15h6.19l-2.37,27.15h9.74l-.55,6.58h-28.5l.55-6.58ZM94.24,256.36c-.7-.76-1.05-1.66-1.05-2.7s.42-1.98,1.28-2.83c.85-.85,1.85-1.28,3-1.28.97,0,1.81.37,2.5,1.1.7.73,1.05,1.58,1.05,2.56,0,1.1-.43,2.09-1.28,2.97-.85.88-1.82,1.33-2.91,1.33-1.03,0-1.9-.38-2.6-1.14ZM105.53,256.36c-.7-.76-1.05-1.66-1.05-2.7s.42-1.98,1.28-2.83c.85-.85,1.85-1.28,3-1.28.97,0,1.81.37,2.5,1.1.7.73,1.05,1.58,1.05,2.56,0,1.1-.43,2.09-1.28,2.97-.85.88-1.82,1.33-2.91,1.33-1.03,0-1.9-.38-2.6-1.14Z"/>
    <path class="cls-2" d="M132.72,175.6h6.19l-2.64,31.35h38.25c5.04,0,8.88,1.23,11.52,3.7,2.64,2.47,3.96,6.02,3.96,10.65,0,6.22-1.61,11-4.83,14.35-3.22,3.35-7.74,5.03-13.57,5.03h-57.92l.55-6.58h13.39l3.1-34.83,2-23.68ZM172.51,234.1c3.58,0,6.36-1.02,8.33-3.06,1.97-2.04,2.96-4.98,2.96-8.82,0-2.8-.82-4.95-2.46-6.44-1.64-1.49-3.98-2.24-7.01-2.24h-38.7l-1.82,20.57h38.7ZM152.52,198.13c-.7-.76-1.05-1.66-1.05-2.7s.42-1.98,1.27-2.83c.85-.85,1.85-1.28,3.01-1.28.97,0,1.81.37,2.5,1.1.7.73,1.05,1.59,1.05,2.56,0,1.1-.42,2.09-1.27,2.97-.85.88-1.82,1.33-2.91,1.33-1.03,0-1.9-.38-2.6-1.14Z"/>
    <path class="cls-2" d="M202.75,256.59h8.11c5.16,0,9.12-1.25,11.88-3.75,2.76-2.5,4.38-6.46,4.87-11.88v-.27h-27.5l1.28-13.71c.55-6.34,2.72-11.26,6.51-14.76,3.79-3.5,8.82-5.26,15.07-5.26h13.84l-2.46,27.15h10.84l-.55,6.58h-10.84v.09c-.67,7.13-3.05,12.65-7.15,16.55-4.1,3.9-9.61,5.85-16.53,5.85h-7.92l.55-6.58ZM212.08,217.14c-2.58,2.41-4.11,5.77-4.6,10.1l-.55,6.76h21.31l1.73-20.39h-7.65c-4.25-.06-7.67,1.11-10.25,3.52Z"/>
    <path class="cls-2" d="M242.18,234.1h12.57l2.37-27.15h6.19l-2.37,27.15h9.74l-.55,6.58h-28.5l.55-6.58ZM252.79,198.13c-.7-.76-1.05-1.66-1.05-2.7s.42-1.98,1.27-2.83c.85-.85,1.85-1.28,3.01-1.28.97,0,1.81.37,2.5,1.1.7.73,1.05,1.59,1.05,2.56,0,1.1-.42,2.09-1.27,2.97-.85.88-1.82,1.33-2.91,1.33-1.03,0-1.9-.38-2.6-1.14ZM264.08,198.13c-.7-.76-1.05-1.66-1.05-2.7s.42-1.98,1.27-2.83c.85-.85,1.85-1.28,3.01-1.28.97,0,1.81.37,2.5,1.1.7.73,1.05,1.59,1.05,2.56,0,1.1-.42,2.09-1.27,2.97-.85.88-1.82,1.33-2.91,1.33-1.03,0-1.9-.38-2.6-1.14Z"/>
    <path class="cls-2" d="M292.72,175.6l-4.46,50.73c-.49,5.12-1.87,8.79-4.14,11.02-2.28,2.23-5.75,3.34-10.43,3.34h-6.47l.73-6.58h5.74c2.85,0,4.89-.56,6.1-1.69,1.21-1.13,1.97-3.15,2.28-6.08l4.37-50.73h6.28Z"/>
    <path class="cls-2" d="M301.28,240.68l5.74-65.09h6.28l-5.74,65.09h-6.28Z"/>
    <path class="cls-2" d="M396.72,199.27l-.64,7.68h38.34c5.04,0,8.88,1.23,11.52,3.7s3.96,6.08,3.96,10.83c0,.98-.03,1.74-.09,2.29-.49,5.42-2.31,9.6-5.46,12.52-3.16,2.93-7.44,4.39-12.84,4.39h-38.43c-.73,3.84-2.17,7.46-4.33,10.88-2.16,3.41-5.19,6.22-9.11,8.41-3.92,2.19-8.7,3.29-14.34,3.29-6.44,0-11.98-1.8-16.62-5.39-4.64-3.6-6.97-9.57-6.97-17.92,0-.79.06-2.04.18-3.75l1.09-12.98h6.28l-1.09,12.98c-.12,1.59-.18,2.68-.18,3.29,0,6.22,1.7,10.63,5.1,13.25,3.4,2.62,7.68,3.93,12.84,3.93,6.86,0,12-1.86,15.44-5.58,3.43-3.72,5.36-8.2,5.78-13.44l1.64-18.37,1.73-20.02h6.19ZM432.41,234.1c3.58,0,6.36-1.02,8.33-3.06,1.97-2.04,2.96-4.92,2.96-8.64,0-2.86-.81-5.06-2.41-6.58-1.61-1.52-3.96-2.29-7.06-2.29h-38.7l-1.82,20.57h38.7ZM418.07,198.22c-.7-.76-1.05-1.66-1.05-2.7s.42-1.98,1.27-2.83c.85-.85,1.85-1.28,3.01-1.28.97,0,1.81.37,2.5,1.1.7.73,1.05,1.59,1.05,2.56,0,1.1-.42,2.09-1.27,2.97-.85.88-1.82,1.33-2.91,1.33-1.03,0-1.9-.38-2.6-1.14Z"/>
    <path class="cls-2" d="M456.45,256.59h1.64c3.28,0,5.84-.53,7.69-1.6,1.85-1.07,3.22-2.71,4.1-4.94.88-2.23,1.47-5.26,1.78-9.1l3.1-34.01h6.19l-2.46,27.15h10.93l-.55,6.58h-11.02v.27c-.55,7.25-2.41,12.77-5.6,16.55-3.19,3.78-8.15,5.67-14.89,5.67h-1.46l.55-6.58Z"/>
    <path class="cls-2" d="M486.41,234.1h24.31l-14.39-19.29.46-5.21c8.32-1.77,16.39-2.65,24.22-2.65s15.69.88,23.58,2.65l-.46,5.21-17.76,19.29h21.58l-.55,6.58h-61.56l.55-6.58ZM518.65,232.91l17.21-18.19c-4.8-1.04-9.96-1.55-15.48-1.55s-10.75.52-15.85,1.55l14.12,18.19Z"/>
    <path class="cls-2" d="M587.95,211.48c3.16,3.02,4.74,7.33,4.74,12.93,0,1.1-.03,1.95-.09,2.56l-1.18,13.71h-46.9l.55-6.58h13.21l2.37-27.15h13.84c5.83,0,10.32,1.51,13.48,4.52ZM566.28,213.63l-1.82,20.39h21.31l.64-6.76c.3-4.33-.64-7.69-2.82-10.1-2.19-2.41-5.4-3.58-9.65-3.52h-7.65Z"/>
  </g>
</svg>